<?xml version="1.0" encoding="UTF-8"?>
<!DOCTYPE svg PUBLIC "-//W3C//DTD SVG 1.1//EN" "http://www.w3.org/Graphics/SVG/1.1/DTD/svg11.dtd">
<svg xmlns="http://www.w3.org/2000/svg" version="1.1" width="1200px" height="1200px" style="shape-rendering:geometricPrecision; text-rendering:geometricPrecision; image-rendering:optimizeQuality; fill-rule:evenodd; clip-rule:evenodd" xmlns:xlink="http://www.w3.org/1999/xlink">
<g><path style="opacity:0.947" fill="#fefffe" d="M 910.5,357.5 C 940.974,356.308 955.307,370.974 953.5,401.5C 945.833,402.167 938.167,402.833 930.5,403.5C 930.515,397.256 929.349,391.256 927,385.5C 920.702,379.036 914.369,379.036 908,385.5C 903.878,395.261 905.211,404.261 912,412.5C 922.333,423.5 932.667,434.5 943,445.5C 949.169,452.837 953.502,461.17 956,470.5C 959.832,499.552 947.332,515.886 918.5,519.5C 891.646,516.639 878.646,501.639 879.5,474.5C 887.199,473.697 894.865,472.697 902.5,471.5C 902.842,478.136 904.342,484.469 907,490.5C 913.159,496.101 919.992,496.934 927.5,493C 932.202,488.078 933.702,482.245 932,475.5C 930.941,472.382 929.608,469.382 928,466.5C 916.695,454.526 905.361,442.526 894,430.5C 880.069,412.657 877.736,393.324 887,372.5C 892.868,364.322 900.701,359.322 910.5,357.5 Z"/></g>
<g><path style="opacity:0.952" fill="#fefffe" d="M 601.5,359.5 C 617.866,359.151 634.199,359.651 650.5,361C 664.667,364.5 673.5,373.333 677,387.5C 677.667,396.833 677.667,406.167 677,415.5C 675.224,424.064 670.724,430.731 663.5,435.5C 676.868,444.418 682.201,456.918 679.5,473C 681.927,500.23 669.594,514.897 642.5,517C 628.837,517.5 615.171,517.667 601.5,517.5C 601.5,464.833 601.5,412.167 601.5,359.5 Z M 626.5,383.5 C 632.176,383.334 637.843,383.501 643.5,384C 647.499,384.668 650.332,386.835 652,390.5C 654,398.833 654,407.167 652,415.5C 650.181,420.336 646.681,423.169 641.5,424C 636.511,424.499 631.511,424.666 626.5,424.5C 626.5,410.833 626.5,397.167 626.5,383.5 Z M 626.5,447.5 C 631.844,447.334 637.177,447.501 642.5,448C 650,448.833 654.167,453 655,460.5C 655.667,467.833 655.667,475.167 655,482.5C 654.228,488.235 651.062,491.735 645.5,493C 639.175,493.5 632.842,493.666 626.5,493.5C 626.5,478.167 626.5,462.833 626.5,447.5 Z"/></g>
<g><path style="opacity:0.963" fill="#fefffe" d="M 247.5,360.5 C 259.186,360.168 270.852,360.501 282.5,361.5C 289.153,392.937 295.986,424.27 303,455.5C 309.233,423.834 315.4,392.167 321.5,360.5C 333.167,360.5 344.833,360.5 356.5,360.5C 356.5,412.5 356.5,464.5 356.5,516.5C 348.5,516.5 340.5,516.5 332.5,516.5C 332.667,482.832 332.5,449.165 332,415.5C 324.844,449.114 318.011,482.781 311.5,516.5C 305.242,516.81 299.076,516.476 293,515.5C 286.461,483.139 279.794,450.806 273,418.5C 272.5,451.165 272.333,483.832 272.5,516.5C 264.167,516.5 255.833,516.5 247.5,516.5C 247.5,464.5 247.5,412.5 247.5,360.5 Z"/></g>
<g><path style="opacity:0.945" fill="#fefffe" d="M 381.5,360.5 C 404.5,360.5 427.5,360.5 450.5,360.5C 450.5,368.167 450.5,375.833 450.5,383.5C 435.833,383.5 421.167,383.5 406.5,383.5C 406.5,397.5 406.5,411.5 406.5,425.5C 418.167,425.5 429.833,425.5 441.5,425.5C 441.5,433.167 441.5,440.833 441.5,448.5C 429.833,448.5 418.167,448.5 406.5,448.5C 406.5,463.5 406.5,478.5 406.5,493.5C 421.167,493.5 435.833,493.5 450.5,493.5C 450.5,501.5 450.5,509.5 450.5,517.5C 427.5,517.5 404.5,517.5 381.5,517.5C 381.5,465.167 381.5,412.833 381.5,360.5 Z"/></g>
<g><path style="opacity:0.963" fill="#fefffe" d="M 468.5,360.5 C 480.186,360.168 491.852,360.501 503.5,361.5C 510.153,392.937 516.986,424.27 524,455.5C 530.233,423.834 536.4,392.167 542.5,360.5C 554.167,360.5 565.833,360.5 577.5,360.5C 577.5,412.5 577.5,464.5 577.5,516.5C 569.5,516.5 561.5,516.5 553.5,516.5C 553.667,482.832 553.5,449.165 553,415.5C 545.844,449.114 539.011,482.781 532.5,516.5C 526.242,516.81 520.076,516.476 514,515.5C 507.461,483.139 500.794,450.806 494,418.5C 493.5,451.165 493.333,483.832 493.5,516.5C 485.167,516.5 476.833,516.5 468.5,516.5C 468.5,464.5 468.5,412.5 468.5,360.5 Z"/></g>
<g><path style="opacity:0.945" fill="#fefffe" d="M 699.5,360.5 C 722.5,360.5 745.5,360.5 768.5,360.5C 768.5,368.167 768.5,375.833 768.5,383.5C 753.833,383.5 739.167,383.5 724.5,383.5C 724.5,397.5 724.5,411.5 724.5,425.5C 736.167,425.5 747.833,425.5 759.5,425.5C 759.5,433.167 759.5,440.833 759.5,448.5C 747.833,448.5 736.167,448.5 724.5,448.5C 724.5,463.5 724.5,478.5 724.5,493.5C 739.167,493.5 753.833,493.5 768.5,493.5C 768.5,501.5 768.5,509.5 768.5,517.5C 745.5,517.5 722.5,517.5 699.5,517.5C 699.5,465.167 699.5,412.833 699.5,360.5 Z"/></g>
<g><path style="opacity:0.957" fill="#fefffe" d="M 786.5,360.5 C 803.889,360.056 821.223,360.556 838.5,362C 851.047,366.547 858.547,375.381 861,388.5C 861.667,400.5 861.667,412.5 861,424.5C 858.932,434.136 853.765,441.636 845.5,447C 852.26,469.782 858.926,492.615 865.5,515.5C 856.859,516.498 848.192,516.831 839.5,516.5C 834.16,495.476 828.66,474.476 823,453.5C 819.27,452.54 815.437,452.207 811.5,452.5C 811.5,473.833 811.5,495.167 811.5,516.5C 803.167,516.5 794.833,516.5 786.5,516.5C 786.5,464.5 786.5,412.5 786.5,360.5 Z M 811.5,383.5 C 830.951,379.293 839.617,386.959 837.5,406.5C 839.014,425.309 830.347,432.976 811.5,429.5C 811.5,414.167 811.5,398.833 811.5,383.5 Z"/></g>
<g><path style="opacity:0.973" fill="#fefffe" d="M 313.5,534.5 C 340.711,532.064 363.544,540.731 382,560.5C 388.982,570.098 393.648,580.764 396,592.5C 397.4,610.463 397.9,628.463 397.5,646.5C 381.833,646.5 366.167,646.5 350.5,646.5C 350.667,633.163 350.5,619.829 350,606.5C 345.777,583.963 332.61,576.13 310.5,583C 303.332,587.175 298.832,593.342 297,601.5C 296.333,664.5 296.333,727.5 297,790.5C 302.772,808.55 314.939,815.05 333.5,810C 343.72,805.097 349.22,796.93 350,785.5C 350.5,769.503 350.667,753.503 350.5,737.5C 366.167,737.5 381.833,737.5 397.5,737.5C 397.667,755.836 397.5,774.17 397,792.5C 391.504,829.996 370.004,851.496 332.5,857C 303.913,860.369 280.413,851.202 262,829.5C 253.196,817.299 248.529,803.632 248,788.5C 247.333,726.833 247.333,665.167 248,603.5C 251.957,563.38 273.79,540.38 313.5,534.5 Z"/></g>
<g><path style="opacity:0.965" fill="#fefffe" d="M 438.5,539.5 C 454.833,539.5 471.167,539.5 487.5,539.5C 487.5,628.833 487.5,718.167 487.5,807.5C 515.5,807.5 543.5,807.5 571.5,807.5C 571.5,822.833 571.5,838.167 571.5,853.5C 527.167,853.5 482.833,853.5 438.5,853.5C 438.5,748.833 438.5,644.167 438.5,539.5 Z"/></g>
<g><path style="opacity:0.985" fill="#fefffe" d="M 606.5,539.5 C 622.5,539.5 638.5,539.5 654.5,539.5C 654.333,622.834 654.5,706.167 655,789.5C 659.119,806.595 669.952,813.762 687.5,811C 697.854,807.978 704.021,801.145 706,790.5C 706.5,706.834 706.667,623.167 706.5,539.5C 722.167,539.5 737.833,539.5 753.5,539.5C 753.987,627.203 753.487,714.869 752,802.5C 742.11,838.719 718.277,857.053 680.5,857.5C 642.555,857.028 618.388,838.694 608,802.5C 606.513,714.869 606.013,627.203 606.5,539.5 Z"/></g>
<g><path style="opacity:0.975" fill="#fefffe" d="M 801.5,539.5 C 833.536,539.045 865.536,539.545 897.5,541C 928.206,548.707 946.039,568.207 951,599.5C 951.667,614.5 951.667,629.5 951,644.5C 948.365,664.612 938.531,680.112 921.5,691C 940.887,700.91 952.054,716.743 955,738.5C 956.975,756.499 956.975,774.499 955,792.5C 949.165,826.335 929.331,846.169 895.5,852C 864.186,853.383 832.853,853.883 801.5,853.5C 801.5,748.833 801.5,644.167 801.5,539.5 Z M 850.5,584.5 C 860.506,584.334 870.506,584.5 880.5,585C 891.26,586.427 898.426,592.26 902,602.5C 903.595,616.444 903.928,630.444 903,644.5C 901.153,658.347 893.32,666.18 879.5,668C 869.839,668.5 860.172,668.666 850.5,668.5C 850.5,640.5 850.5,612.5 850.5,584.5 Z M 850.5,714.5 C 861.505,714.333 872.505,714.5 883.5,715C 895.041,716.876 902.541,723.376 906,734.5C 907.11,743.609 907.61,752.776 907.5,762C 907.333,769.833 907.167,777.667 907,785.5C 904.267,798.233 896.433,805.4 883.5,807C 872.505,807.5 861.505,807.667 850.5,807.5C 850.5,776.5 850.5,745.5 850.5,714.5 Z"/></g>
</svg>
